<?xml version="1.0" encoding="utf-8" ?><svg xmlns="http://www.w3.org/2000/svg" xmlns:xlink="http://www.w3.org/1999/xlink" width="2112" height="2016" viewBox="0 0 2112 2016"><path fill="#CCA140" d="M636.049 410.394C670.712 391.54 690.403 393.652 728.687 393.638L802.365 393.632L910.585 393.624C930.599 393.619 950.694 393.429 970.636 393.949C1003.65 394.811 1032.87 409.47 1059.83 427.305C1064.48 430.382 1067.97 437.067 1072.67 438.926C1088.39 418.859 1136.68 397.46 1162.08 394.909C1178.56 393.254 1200.78 393.654 1217.74 393.658L1303.66 393.679L1401.3 393.68C1449.12 393.666 1479.93 388.469 1521.01 419.952C1583.14 467.562 1571.65 534.221 1571.62 603.531C1571.6 654.397 1572.48 706.652 1571.74 757.777L1462.67 757.82L1462.54 756.218C1461.19 738.953 1462.05 711.324 1462.06 692.97L1461.87 585.381C1461.89 566.061 1463.34 542.322 1460.28 523.524C1455.95 496.932 1419.46 502.12 1400.55 502.149L1328.45 502.163L1236.59 502.17C1221.1 502.177 1203.24 501.756 1187.94 502.664C1173.49 503.522 1160.29 510.861 1151.19 522.15C1136.28 540.664 1139.22 561.484 1137.53 583.228C1139.95 585.717 1142.07 585.091 1146.6 585.16C1148.9 585.185 1151.21 585.191 1153.52 585.178C1175.17 584.898 1196.82 584.843 1218.48 585.013C1249.2 584.986 1275.95 582.59 1305.15 595.049C1349.62 614.015 1374.31 655.793 1375.08 703.442C1375.36 721.213 1375.07 739.597 1375.27 757.654C1340.15 758.03 1301.47 756.864 1266.89 758.049L1267.73 759.049C1285.75 780.169 1313.1 797.539 1322.98 825.717C1324.76 830.805 1325.22 836.663 1326.43 842.203C1342.63 842.441 1358.93 842.102 1374.99 842.39L1375.05 977.015C1375.03 1024.39 1380.56 1075.12 1343.49 1112.64C1319.75 1136.68 1288.93 1146.53 1255.51 1146.66L1235.86 1146.62C1224.76 1162.56 1228.78 1160.72 1229.6 1179.65C1230 1189.07 1229.32 1200.25 1228.95 1209.73C1233.33 1210.18 1233.21 1210.06 1237.11 1211.96C1247.12 1214.57 1259.05 1223.05 1267.31 1229.34L1392.89 1229.54C1415.42 1229.45 1459.91 1237.39 1461.45 1203.43C1464.76 1130.41 1459.3 1055.33 1462.81 982.298L1571.18 982.425C1571.77 1039.03 1571.92 1095.64 1571.62 1152.24C1571.47 1187.63 1576.09 1242.2 1556.9 1272.07C1543.63 1300.91 1517.22 1323.07 1487.38 1333.32C1457.91 1343.58 1407.76 1340.34 1375.56 1340.17C1345.1 1340.01 1305.38 1341.89 1275.6 1339.59C1271.75 1334.88 1271.93 1322.27 1271.56 1315.7C1270.09 1311.77 1271.6 1298.14 1268.76 1291.58C1263.94 1280.43 1255.27 1277.51 1249.07 1269.18C1245.09 1263.83 1244.28 1255.77 1237.59 1249.79C1227.02 1240.33 1212.25 1237.54 1204.24 1225.86C1197.64 1216.24 1203.12 1199.44 1198 1192.09L1026.11 1192.33C994.409 1192.16 949.765 1190.62 918.858 1192.4L918.935 1206.62C977.711 1208.12 1039.6 1208.43 1098.47 1209.05C1106.99 1210.22 1115.64 1210.15 1124.22 1210.36C1120.43 1210.98 1115.71 1210.98 1112.43 1211.96C1084.93 1213.82 1054.61 1214.23 1026.85 1215.19L927.453 1219.29C922.441 1227.26 913.028 1234.66 906.397 1241.98C901.756 1247.1 896.594 1254.68 892.376 1259C881.511 1276.32 875.77 1269.86 865.563 1285.43C865.403 1292.22 864.453 1326.49 865.955 1331.46C865.344 1334.71 865.288 1337.24 863.151 1339.65C849.711 1341.04 818.901 1341.02 805.432 1340.16C761.269 1337.33 687.602 1348.32 647.779 1330.03C643.421 1328.84 632.269 1322.76 628.745 1319.72C620.746 1315.18 611.573 1307.05 605.26 1300.35C590.119 1284.16 579.545 1264.23 574.616 1242.61C569.162 1218.14 570.546 1151.96 570.806 1123.61C571.226 1077.89 569.761 1027.69 571.157 982.451C606.108 981.604 644.97 982.224 680.101 982.42C681.445 1030.31 679.161 1080.66 680.257 1129.01C681.719 1155.94 676.897 1185.61 682.926 1211.78C685.76 1224.08 701.365 1229.79 712.551 1229.78C760.846 1229.72 809.624 1230.61 857.803 1229.24C862.659 1229.11 884.423 1215.51 891.995 1212.67C892.444 1212.47 895.315 1211.95 895.898 1211.84C904.873 1200.89 888.886 1159.14 909.099 1158.9C1004.71 1157.78 1100.51 1159.68 1196.1 1158.62C1209.27 1132.07 1212.65 1118.94 1208.81 1088.6C1201.96 1034.62 1166.6 1002.78 1130.85 966.179C1079.48 913.581 1036.25 849.036 1055.76 771.948C1059.58 788.279 1059.51 799.104 1069.92 813.481C1098.99 856.257 1148.38 830.639 1186.18 851.485C1208.98 864.058 1220.76 896.182 1246.28 900.632L1248.53 899.539C1249.97 891.656 1237.74 876.247 1246.09 869.236C1260.07 875.719 1260.21 895.086 1285.07 876.843C1293.32 867.566 1294.45 858.631 1295.18 846.961C1293.51 809.603 1232.92 777.175 1213.12 743.586C1204.03 732.263 1197.08 702.467 1186.23 694.357C1158.69 673.774 1134.15 669.087 1110.18 641.47C1108.41 628.853 1107.21 600.135 1108.08 587.549C1088.38 590.013 1073.29 616.599 1058.25 626.184C1054.72 628.433 1033.19 624.083 1026.68 623.524C1005.85 621.733 962.576 633.851 947.874 647.019L947.328 648.689C951.438 649.805 960.561 652.267 963.967 654.389C967.285 655.998 973.324 658.594 974.228 662.541L973.166 663.966C930.834 669.853 898.222 689.491 876.548 727.08C889.238 726.808 903.505 726.223 915.828 723.124C907.96 741.649 900.977 748.502 882.098 756.773C861.578 770.312 848.334 809.611 846.783 833.114C858.04 829.132 874.871 819.423 885.74 813.41C878.798 848.413 868.26 847.159 850.95 873.013C853.35 894.053 853.985 923.532 858.206 943.611C871.155 936.652 884.559 925.241 892.619 912.855C894.29 951.128 888.745 949.995 868.304 980.358C869.157 989.315 873.287 1038.43 875.07 1044.32L877.16 1045.86C886.583 1040.22 893.36 1035.4 902.218 1029C902.703 1029.94 903.233 1030.83 903.369 1031.89C907.656 1065.66 882.29 1082.19 864.489 1105.97C858.249 1114.3 854.617 1127.14 848.247 1135.62C847.078 1137.18 844.782 1140.02 843.087 1139.81C829.52 1138.15 809.982 1123.86 800.9 1115.06C776.68 1091.61 766.92 1059.7 766.885 1026.73C766.808 953.643 767.058 880.512 766.951 807.421L766.784 739.745C766.674 694.413 766.744 655.541 801.1 620.339C839.015 581.489 878.813 584.954 928.614 584.994L1005.62 584.974C1005.45 562.273 1006.77 538.082 990.672 519.723C982.003 509.835 967.043 502.516 953.953 502.337C935.63 502.087 917.082 502.183 898.723 502.184L792.938 502.16L734.804 502.075C728.208 502.07 711.223 501.681 705.583 502.554C699.705 503.455 694.259 506.177 690.009 510.335C685.031 515.218 681.943 520.434 681.374 527.308C679.458 550.483 680.315 577.019 680.321 600.413L680.244 757.703C645.927 758.864 605.617 757.815 570.826 757.799L570.814 607.795C570.808 578.889 570.771 549.881 570.988 520.984C571.304 479.121 597.924 429.483 636.049 410.394ZM1264.62 755.416C1265.45 747.198 1265.69 734.58 1265.48 726.281C1265.13 712.286 1263.65 705.427 1253.8 696.06C1248.24 695.079 1229.73 694.724 1225.2 696.855C1229.92 717.983 1247.17 743.358 1264.62 755.416ZM1264.15 953.176C1242.94 953.191 1211.31 955.065 1191.36 951.38C1158.78 945.361 1151.87 909.605 1155.58 880.788C1154.91 879.036 1155.05 878.091 1153.67 877.805C1146.77 876.373 1107.55 875.87 1103.46 877.875C1126.67 928.835 1171.29 955.332 1205.53 997.683C1209.24 1002.27 1230.04 1036.6 1232.45 1037.37C1244.25 1041.17 1262.97 1031.98 1263.81 1017.22C1265.92 998.855 1266.33 971.513 1264.15 953.176Z"/><path fill="#CCA140" d="M636.049 410.394L636.197 412.523C631.182 416.723 617.871 425.944 615.048 430.612C611.612 436.296 604.556 439.801 602.088 443.09C592.999 455.204 584.326 471.917 579.78 486.357C578.364 490.855 578.164 497.825 577.681 502.547C573.525 543.103 574.619 586.064 574.761 626.939L574.494 754.507L637.955 754.617C646.955 754.629 665.764 755.252 673.58 753.592C678.214 748.893 676.39 703.328 676.324 694.035L676.231 582.991C676.259 564.467 674.938 543.577 677.973 525.079C682.336 498.486 703.127 497.651 726.98 498.002C805.172 499.154 884.636 496.931 962.861 499.645C967.685 501.766 974.712 502.687 979.087 505.318C1006.39 521.733 1010.04 549.713 1009.42 578.869C1009.12 592.757 987.806 588.814 978.162 588.687L918.307 588.359C865.496 588.178 820.893 590.382 790.63 640.101C787.004 646.058 782.919 652.133 780.272 658.599C775.144 671.124 771.941 685.284 770.981 698.776C769.673 717.172 770.904 736.113 771.051 754.573L771.061 848.702L770.417 968.534C770.282 1003.05 767.325 1045.49 780.624 1078.1C792.021 1106.04 814.162 1126.99 843.535 1134.89C854.662 1119.16 858.109 1101.35 872.723 1088.62C883.428 1079.29 900.957 1055.17 899.779 1040.49L898.802 1039.02C892.021 1039.21 882.79 1051.06 877.449 1047.3L877.16 1045.86C886.583 1040.22 893.36 1035.4 902.218 1029C902.703 1029.94 903.233 1030.83 903.369 1031.89C907.656 1065.66 882.29 1082.19 864.489 1105.97C858.249 1114.3 854.617 1127.14 848.247 1135.62C847.078 1137.18 844.782 1140.02 843.087 1139.81C829.52 1138.15 809.982 1123.86 800.9 1115.06C776.68 1091.61 766.92 1059.7 766.885 1026.73C766.808 953.643 767.058 880.512 766.951 807.421L766.784 739.745C766.674 694.413 766.744 655.541 801.1 620.339C839.015 581.489 878.813 584.954 928.614 584.994L1005.62 584.974C1005.45 562.273 1006.77 538.082 990.672 519.723C982.003 509.835 967.043 502.516 953.953 502.337C935.63 502.087 917.082 502.183 898.723 502.184L792.938 502.16L734.804 502.075C728.208 502.07 711.223 501.681 705.583 502.554C699.705 503.455 694.259 506.177 690.009 510.335C685.031 515.218 681.943 520.434 681.374 527.308C679.458 550.483 680.315 577.019 680.321 600.413L680.244 757.703C645.927 758.864 605.617 757.815 570.826 757.799L570.814 607.795C570.808 578.889 570.771 549.881 570.988 520.984C571.304 479.121 597.924 429.483 636.049 410.394Z"/><path fill="#CCA140" d="M1072.67 438.926C1088.39 418.859 1136.68 397.46 1162.08 394.909C1178.56 393.254 1200.78 393.654 1217.74 393.658L1303.66 393.679L1401.3 393.68C1449.12 393.666 1479.93 388.469 1521.01 419.952C1583.14 467.562 1571.65 534.221 1571.62 603.531C1571.6 654.397 1572.48 706.652 1571.74 757.777L1462.67 757.82L1462.54 756.218C1461.19 738.953 1462.05 711.324 1462.06 692.97L1461.87 585.381C1461.89 566.061 1463.34 542.322 1460.28 523.524C1455.95 496.932 1419.46 502.12 1400.55 502.149L1328.45 502.163L1236.59 502.17C1221.1 502.177 1203.24 501.756 1187.94 502.664C1173.49 503.522 1160.29 510.861 1151.19 522.15C1136.28 540.664 1139.22 561.484 1137.53 583.228C1136.82 584.469 1137.33 583.874 1135.82 584.835C1133.04 580.43 1135.1 568.411 1135.09 562.989C1135.06 544.543 1138.87 531.188 1151.01 517.208C1163.99 502.263 1176.55 499.691 1195.39 498.888C1213.24 498.194 1232.12 498.549 1250.09 498.562L1343.87 498.525L1406.51 498.638C1421.76 498.708 1444.68 496.15 1455.3 508.095C1470.07 524.718 1465.32 565.329 1465.39 587.092L1465.47 681.925C1465.38 702.337 1465.25 722.934 1465.48 743.344C1465.54 748.193 1465.76 750.186 1468.93 753.103C1483.35 754.381 1553.85 756.12 1564.89 753.234C1565.06 752.942 1565.27 752.666 1565.4 752.357C1567.57 747.506 1567.39 537.491 1566.43 513.335C1566.14 506.088 1566.07 496.685 1563.44 489.866C1561.44 484.672 1560.53 478.998 1558.25 473.944C1547.56 450.316 1527.47 425.94 1505.18 412.431C1495.57 406.601 1477.17 399.589 1466.32 397.936C1453.04 395.913 1394.69 395.385 1383.45 398.124C1385.31 399.769 1384.64 398.823 1385.56 400.874L1383.82 402.025C1377.67 402.032 1377.25 403.005 1372.97 398.686C1364.61 398.612 1355.31 398.587 1347.01 398.025C1341.04 397.62 1336.05 396.362 1329.6 396.447C1296.03 396.771 1262.43 396.751 1228.85 396.678C1203.53 396.622 1179.61 395.648 1154.51 399.611C1150.36 399.434 1141.35 402.867 1136.98 404.354C1133.47 406.47 1128.05 407.179 1124.15 408.758C1111.35 413.944 1096.66 423.812 1084.94 431.375C1080.38 434.32 1077.19 440.419 1073.52 441.048L1072.67 438.926Z"/><path fill="#CCA140" d="M1153.52 585.178C1175.17 584.898 1196.82 584.843 1218.48 585.013C1249.2 584.986 1275.95 582.59 1305.15 595.049C1349.62 614.015 1374.31 655.793 1375.08 703.442C1375.36 721.213 1375.07 739.597 1375.27 757.654C1340.15 758.03 1301.47 756.864 1266.89 758.049L1267.73 759.049C1285.75 780.169 1313.1 797.539 1322.98 825.717C1324.76 830.805 1325.22 836.663 1326.43 842.203C1342.63 842.441 1358.93 842.102 1374.99 842.39L1375.05 977.015C1375.03 1024.39 1380.56 1075.12 1343.49 1112.64C1319.75 1136.68 1288.93 1146.53 1255.51 1146.66L1235.86 1146.62C1224.76 1162.56 1228.78 1160.72 1229.6 1179.65C1230 1189.07 1229.32 1200.25 1228.95 1209.73L1227.78 1210.09C1223.57 1204.47 1227.12 1188.26 1226.57 1181.44C1227.07 1175.93 1223.93 1167.06 1224.85 1161.88C1229.68 1134.7 1254.65 1144.73 1267.92 1143.1C1295.7 1139.2 1319.31 1131.83 1339.41 1111.58C1375.14 1075.6 1369.85 1037.95 1370.1 992.278L1370.5 846.587C1357.71 846.002 1338.41 847.362 1325.95 844.059C1319.82 842.437 1321.73 829.227 1319.23 824.918C1306.95 803.775 1292.17 785.041 1272.47 770.202C1255.61 758.489 1242.55 744.829 1233.61 726.053C1230.29 719.082 1219.65 703.758 1224.32 695.9L1225.2 696.855C1229.92 717.983 1247.17 743.358 1264.62 755.416C1265.45 747.198 1265.69 734.58 1265.48 726.281C1265.13 712.286 1263.65 705.427 1253.8 696.06C1261.12 693.408 1265.51 705.146 1267.13 710.53C1271.44 724.769 1268.57 740.073 1269.45 754.505C1282.06 754.525 1359.88 755.613 1368.2 752.197C1371.85 742.724 1371.29 707.208 1370.8 695.338C1370.92 688.785 1370.47 683.457 1368.81 677.118C1367.74 667.795 1352.51 636.835 1346.06 629.321C1312.12 589.797 1271.72 587.081 1223.19 588.301C1196.99 588.959 1163.59 589.526 1137.71 587.108C1140.74 585.724 1149.67 585.427 1153.52 585.178Z"/><path fill="#CCA140" d="M1196.1 1158.62C1209.27 1132.07 1212.65 1118.94 1208.81 1088.6C1201.96 1034.62 1166.6 1002.78 1130.85 966.179C1079.48 913.581 1036.25 849.036 1055.76 771.948C1059.58 788.279 1059.51 799.104 1069.92 813.481C1098.99 856.257 1148.38 830.639 1186.18 851.485C1208.98 864.058 1220.76 896.182 1246.28 900.632L1249.4 901.21L1249.58 902.343C1243.35 905.922 1243.2 903.863 1237.27 902.943C1222.01 900.575 1224.47 892.593 1219.08 887.005C1207.41 874.915 1193.64 861.602 1179.96 851.805C1166.81 846.136 1147.52 846.701 1133.11 846.42C1117.65 846.119 1108.51 841.551 1096.38 839.15C1080.98 836.102 1061.35 806.879 1057.54 807.833C1057.58 815.938 1059.47 824.324 1060.85 832.315C1061.47 835.87 1058.98 838.887 1059.19 840.567C1065.07 886.864 1102.76 932.057 1133.81 964.282C1164.53 996.175 1194.97 1021.45 1207.05 1065.31C1212.84 1081.78 1214.62 1099.71 1212.81 1117.02C1211.64 1128.22 1206.88 1150.48 1199.54 1158.81C1194.54 1164.49 1160.65 1162.79 1151.88 1162.78L1088.78 1162.8L972.414 1162.6C958.079 1162.61 944.007 1163.17 929.686 1163.37C922.877 1163.47 910.579 1160.66 906.212 1164.54C895.683 1173.87 908.331 1206.99 897.616 1212.17L895.898 1211.84C904.873 1200.89 888.886 1159.14 909.099 1158.9C1004.71 1157.78 1100.51 1159.68 1196.1 1158.62Z"/><path fill="#CCA140" d="M1462.81 982.298L1571.18 982.425C1571.77 1039.03 1571.92 1095.64 1571.62 1152.24C1571.47 1187.63 1576.09 1242.2 1556.9 1272.07C1555.46 1260.87 1566.34 1241.65 1566.39 1229.42C1566.58 1181.89 1566.37 1134.14 1566.42 1086.64L1566.55 1029.07C1566.6 1017.16 1567.35 998.34 1565.27 987.287C1560.54 984.588 1477.5 985.854 1466.12 986.113C1464.54 999.432 1465.37 1029.97 1465.34 1044.41L1465.27 1152.3C1465.37 1169.56 1466.81 1194.23 1463.33 1210.87C1460.75 1223.23 1452.23 1227.92 1442.43 1233.5C1396.89 1232.51 1316.48 1234.54 1268.31 1233.62C1268.56 1233.62 1243.75 1216.27 1240.74 1215.64C1239.24 1215.33 1237.85 1213.54 1237.11 1211.96C1247.12 1214.57 1259.05 1223.05 1267.31 1229.34L1392.89 1229.54C1415.42 1229.45 1459.91 1237.39 1461.45 1203.43C1464.76 1130.41 1459.3 1055.33 1462.81 982.298Z"/><path fill="#CCA140" d="M571.157 982.451C606.108 981.604 644.97 982.224 680.101 982.42C681.445 1030.31 679.161 1080.66 680.257 1129.01C681.719 1155.94 676.897 1185.61 682.926 1211.78C685.76 1224.08 701.365 1229.79 712.551 1229.78C760.846 1229.72 809.624 1230.61 857.803 1229.24C862.659 1229.11 884.423 1215.51 891.995 1212.67L892.043 1214.4C887.164 1217.87 874.861 1227.46 870.25 1229.54L863.089 1232.7C860.213 1233.97 857.687 1234.24 854.56 1234.29C830.55 1234.68 806.187 1233.42 782.106 1233.4C759.398 1233.38 736.174 1234.69 713.539 1233.5C707.359 1233.17 701.337 1232.14 695.604 1229.73C687.21 1226.21 683.351 1221.67 680.168 1213.2C672.514 1192.83 676.023 1127.47 676.168 1103.81C676.405 1064.9 677.218 1025.74 675.841 986.851C663.14 984.923 586.899 984.574 574.352 986.64C571.861 1024.22 573.274 1074.92 573.586 1113.01L574.092 1171.8C574.4 1221.31 572.291 1259.55 606.239 1298.07C611.127 1303.61 627.163 1314.11 628.745 1319.72C620.746 1315.18 611.573 1307.05 605.26 1300.35C590.119 1284.16 579.545 1264.23 574.616 1242.61C569.162 1218.14 570.546 1151.96 570.806 1123.61C571.226 1077.89 569.761 1027.69 571.157 982.451Z"/><path fill="#CCA140" d="M892.376 1259C891.671 1246.8 917.93 1226.24 923.032 1217.35C922.34 1212.55 916.719 1210.42 914.724 1204.9C912.179 1197.86 916.149 1195.95 917.126 1189.89C923.85 1187.58 1016.18 1190.17 1030.14 1190.27L1128.58 1190.03C1138.89 1189.98 1191.54 1188.58 1197.2 1189.79L1198 1192.09L1026.11 1192.33C994.409 1192.16 949.765 1190.62 918.858 1192.4L918.935 1206.62C977.711 1208.12 1039.6 1208.43 1098.47 1209.05C1106.99 1210.22 1115.64 1210.15 1124.22 1210.36C1120.43 1210.98 1115.71 1210.98 1112.43 1211.96C1084.93 1213.82 1054.61 1214.23 1026.85 1215.19L927.453 1219.29C922.441 1227.26 913.028 1234.66 906.397 1241.98C901.756 1247.1 896.594 1254.68 892.376 1259Z"/><path fill="#CCA140" d="M647.779 1330.03C652.134 1329.54 726.404 1331.38 727.229 1331.62L724.633 1333C730.188 1332.7 730.248 1330.04 737.681 1330.27C743.919 1330.46 749.422 1329.83 755.974 1330.48C757.002 1331.86 758.217 1333.43 760.132 1333.44L758.572 1332.57L759.078 1331.18C762.648 1330.79 767.881 1331.67 771.613 1331.65C779.412 1331.62 819.028 1328.77 823.538 1332.27L824.304 1331.67L824.036 1330.53C826.239 1329.7 842.524 1330.95 848.154 1330.64L848.313 1331.38L845.756 1332.96L845.948 1332.74L847.475 1333.68C854.033 1333.63 860.393 1334.46 865.955 1331.46C865.344 1334.71 865.288 1337.24 863.151 1339.65C849.711 1341.04 818.901 1341.02 805.432 1340.16C761.269 1337.33 687.602 1348.32 647.779 1330.03Z"/><path fill="#CCA140" d="M1271.56 1315.7L1272.6 1313.58C1278.27 1317.17 1275.89 1326.47 1280.65 1332.61C1281.92 1331.13 1281.56 1332 1281.69 1330L1283.99 1331.08L1284.27 1333.31L1287.06 1334.17L1287.53 1333.56L1286 1331.73C1285.68 1331.9 1362.93 1331.17 1366.81 1331.7L1362.29 1333.44C1371.08 1334.63 1382.04 1329.99 1390.18 1330.6C1421.75 1332.99 1456.15 1328.71 1487.38 1333.32C1457.91 1343.58 1407.76 1340.34 1375.56 1340.17C1345.1 1340.01 1305.38 1341.89 1275.6 1339.59C1271.75 1334.88 1271.93 1322.27 1271.56 1315.7Z"/><path fill="#CCA140" d="M947.328 648.689C944.685 649.578 945.692 649.544 942.986 648.998L942.65 647.477C948.871 638.731 982.992 624.106 993.919 621.685C1014.26 617.638 1038.83 623.016 1058.45 620.347C1063.24 619.696 1095.4 576.159 1108.24 585.465L1108.08 587.549C1088.38 590.013 1073.29 616.599 1058.25 626.184C1054.72 628.433 1033.19 624.083 1026.68 623.524C1005.85 621.733 962.576 633.851 947.874 647.019L947.328 648.689Z"/><path fill="#CCA140" d="M963.967 654.389C967.285 655.998 973.324 658.594 974.228 662.541L973.166 663.966C930.834 669.853 898.222 689.491 876.548 727.08C889.238 726.808 903.505 726.223 915.828 723.124C907.96 741.649 900.977 748.502 882.098 756.773L881.696 754.949C888.701 749.593 894.725 747.234 903.248 740.348L906.601 730.193C899.534 730.248 878.37 732.818 874.015 728.107C873.673 704.147 922.979 675.65 942.335 666.999C948.31 664.329 961.387 664.867 968.263 660.552C966.559 658.897 965.585 658.086 963.781 656.564L963.967 654.389Z"/><path fill="#CCA140" d="M1281.69 1330C1285.02 1326.48 1451.13 1326.43 1467.17 1328.49C1445.96 1331.92 1394.14 1325.1 1371.45 1331.38C1368.65 1332.15 1370.33 1332.12 1366.81 1331.7C1362.93 1331.17 1285.68 1331.9 1286 1331.73L1287.53 1333.56L1287.06 1334.17L1284.27 1333.31L1283.99 1331.08L1281.69 1330Z"/><path fill="#CCA140" d="M1370.8 695.338C1369.73 698.18 1368.03 724.017 1367.54 729.219L1365.67 729.265C1364.76 722.038 1363.54 681.961 1366.51 676.749L1368.81 677.118C1370.47 683.457 1370.92 688.785 1370.8 695.338Z"/><path fill="#CCA140" d="M1154.51 399.611L1155.35 400.848C1161.73 404.238 1188.31 398.539 1194.93 402.986C1198.67 405.502 1207.27 402.847 1208.95 404.757C1186.23 407.74 1159.9 404.114 1136.98 404.354C1141.35 402.867 1150.36 399.434 1154.51 399.611Z"/><path fill="#CCA140" d="M1295.18 846.961L1297.05 847.739C1297.54 855.27 1301.99 872.584 1299.17 877.383C1293.72 878.761 1290.66 877.902 1285.07 876.843C1293.32 867.566 1294.45 858.631 1295.18 846.961Z"/><path fill="#CCA140" d="M1155.58 880.788C1156.25 879.381 1156.37 879.228 1157.21 877.94C1162.33 884.448 1151.92 915.338 1170.87 935.957C1193.45 960.516 1248.81 940.163 1266.49 952.959C1270.42 955.801 1267.73 1001.57 1268.54 1011.17C1269.84 1026.35 1252.42 1045.71 1234.76 1040.98C1232.25 1040.37 1229.99 1040.45 1228.21 1038.19C1216.62 1023.47 1208.48 1006.32 1196.47 991.891C1176.36 969.832 1153.88 949.958 1133.1 928.541C1125.11 920.302 1117.27 906.156 1108.68 897.623C1105.63 894.598 1101.15 883.067 1101.74 878.71L1103.46 877.875C1126.67 928.835 1171.29 955.332 1205.53 997.683C1209.24 1002.27 1230.04 1036.6 1232.45 1037.37C1244.25 1041.17 1262.97 1031.98 1263.81 1017.22C1265.92 998.855 1266.33 971.513 1264.15 953.176C1242.94 953.191 1211.31 955.065 1191.36 951.38C1158.78 945.361 1151.87 909.605 1155.58 880.788Z"/><path fill="#CCA140" d="M907.391 1165.68C910.096 1168.92 910.663 1186.28 910.092 1190.65L909.328 1189.91L908.484 1187.67L907.9 1188.78C902.603 1180.38 904.661 1174.82 907.391 1165.68Z"/><path fill="#CCA140" d="M780.427 1056.66L782.449 1057.09C783.308 1063.13 783.799 1066.62 782.99 1072.72L782.009 1072.89L780.416 1071.53C779.235 1067.24 779.953 1061.17 780.427 1056.66Z"/><path fill="#FCFCFA" d="M506.038 1635.8C505.76 1587.09 504.753 1537.06 507.218 1488.83C507.299 1487.25 518.626 1486.16 520.477 1486.23C553.175 1487.33 592.637 1483.68 624.576 1487.88C682.989 1495.56 669.382 1565.03 668.73 1606.12C668.663 1616.67 658.615 1626.88 650.055 1633.17C659.918 1639.74 666.569 1646.29 668.986 1658.46C671.143 1669.31 670.221 1681.43 670.224 1692.47C670.23 1714.83 673.335 1744.43 659.346 1763.57C651.361 1774.5 638.02 1780.62 624.924 1782.37C610.772 1784.27 515.867 1786.65 507.629 1780.98C506.243 1780.02 506.157 1777.27 505.995 1775.68C504.915 1765.14 505.227 1752.13 506.145 1741.56C504.817 1710.05 505.911 1667.71 506.038 1635.8ZM559.405 1734.11C573.067 1734.3 598.58 1736.4 610.453 1731.02C617.866 1723.84 617.207 1710.75 617.24 1701.35C617.274 1691.43 618.8 1669.23 612.37 1662.03C606.013 1654.92 573.153 1657.32 563.626 1657.5L559.997 1657.82C557.952 1661.03 559.238 1725.13 559.405 1734.11ZM559.216 1608.36C573.817 1609.23 598.632 1611.2 611.272 1604.59C617.932 1594.66 620.64 1543.93 608.044 1538.19C598.329 1533.76 571.792 1536.13 559.232 1535.83C558.994 1560.01 558.988 1584.18 559.216 1608.36Z"/><path fill="#FCFCFA" d="M506.038 1635.8C509.485 1637.3 508.245 1636.11 509.91 1639.46C509.068 1651.85 510.336 1662.21 506.881 1675.01C505.868 1678.76 511.151 1685.96 508.289 1691.49L507.213 1688.36C506.426 1692.82 507.91 1695.13 509.607 1699.41L509.127 1701.35L507.667 1702.03C507.389 1709.87 509.733 1721.59 508.576 1728.08L507.992 1724.31C507.68 1730.42 507.71 1735.65 506.145 1741.56C504.817 1710.05 505.911 1667.71 506.038 1635.8Z"/><path fill="#FCFCFA" d="M963.024 1683.28C965.622 1713.05 963.215 1749.73 962.823 1779.74C962.737 1786.32 915.756 1784.24 910.713 1781.77C907.957 1774.56 908.903 1752.14 908.918 1743.62L909 1678.77L909.028 1559.36C909.019 1548.01 907.289 1494.75 911.348 1487.92C923.383 1482.78 984.138 1488.56 1001.68 1486.23C1032.17 1482.2 1072.18 1497.28 1073.12 1533.49C1074.1 1571.49 1077.81 1612.42 1069.64 1649.43C1066.67 1662.88 1056.12 1670.44 1044.89 1676.44C1045.8 1679.03 1046.14 1681.11 1046.71 1683.79C1050.66 1694.57 1053.83 1706.24 1057.07 1717.3C1060.71 1727.52 1073.5 1771.07 1074.7 1780.22C1072.71 1786.08 1030.22 1784.46 1024.37 1782.45C1019.87 1777.85 995.696 1694.57 993.239 1683.31C983.133 1682.96 973.129 1683.16 963.024 1683.28ZM963.912 1633.03C979.785 1633.15 1004.02 1636.32 1015.4 1627.58C1022.59 1617.11 1020.79 1601.22 1021.14 1588.98C1022.89 1527.97 1017.19 1535.97 963.82 1535.84C963.582 1568.24 963.613 1600.64 963.912 1633.03Z"/><path fill="#FCFCFA" d="M1046.71 1683.79C1050.66 1694.57 1053.83 1706.24 1057.07 1717.3C1052.67 1713.53 1052.9 1711.68 1051.47 1705.64C1051.07 1708.08 1051.16 1708.01 1049.98 1710.16L1048.46 1709.09C1045.61 1702.43 1047.41 1692.66 1046.71 1683.79Z"/><path fill="#FCFCFA" d="M339.173 1769.91C324.818 1788.47 273.314 1783.47 252.306 1783.88C222.875 1784.45 195.738 1771.31 191.383 1739.35C187.38 1709.97 189.302 1680.15 189.025 1650.57C188.706 1616.53 189.057 1582.66 189.449 1548.66C190.476 1492.88 224.384 1484.58 271.803 1486.25C298.116 1487.18 325.618 1482.99 345.296 1506.94C360.475 1525.42 356.053 1553.13 356.644 1575.27C356.678 1577.54 354.838 1581.41 352.754 1582.33C348.953 1584.28 315.151 1583.9 312.219 1583.33C292.693 1579.51 311.437 1561.05 297.478 1539.89C286.963 1534.09 271.775 1534.77 260.04 1536.25C253.454 1537.08 250.296 1539.51 245.669 1544.03C245.279 1545.13 243.883 1549.03 243.847 1549.97C241.83 1603.38 242.945 1657.09 243.177 1710.6C244.782 1732.5 250.503 1732.04 268.05 1734.29C313.293 1740.09 303.15 1705.09 303.147 1670.78C265.11 1671.06 276.802 1662.61 275.549 1628.95C276.611 1622.63 281 1622.39 286.966 1622.3C303.594 1622.05 320.667 1622.31 337.278 1622.39C343.782 1622.24 350.211 1621.15 355.161 1625.3C358.181 1631.86 356.894 1709.47 356.824 1721.8C356.569 1738.92 353.635 1758.56 339.173 1769.91Z"/><path fill="#FCFCFA" d="M275.549 1628.95C276.611 1622.63 281 1622.39 286.966 1622.3C303.594 1622.05 320.667 1622.31 337.278 1622.39C332.893 1623.92 331.239 1624.15 326.588 1624.92L330.778 1625.11C317.497 1626.85 305.16 1626.23 291.838 1625.59C286.593 1625.34 279.691 1625.24 275.549 1628.95Z"/><path fill="#FCFCFA" d="M339.173 1769.91C340.023 1765.3 343.448 1758.8 346.082 1754.93C352.097 1746.11 348.469 1745.9 350.278 1737.13C352.791 1735.88 352.811 1736.09 354.319 1733.78C354.497 1728.39 354.132 1726.54 356.824 1721.8C356.569 1738.92 353.635 1758.56 339.173 1769.91Z"/><path fill="#FCFCFA" d="M720.251 1486.51C753.596 1486.76 786.941 1486.8 820.286 1486.62C828.932 1486.61 864.678 1484.63 869.679 1488.68C872.658 1495.83 874.21 1527.47 870.315 1533.99C864.91 1543.04 787.339 1534.67 771.824 1538.24C768.773 1542.31 770.143 1598.77 770.172 1607.83C795.429 1608.54 821.986 1606.12 846.697 1609.52C853.655 1610.47 851.448 1650.69 849.206 1655.58C842.883 1659.86 782.28 1658.04 769.92 1657.99L770.041 1705.76L769.936 1733.07C784.771 1733.1 863.816 1730.31 870.188 1735.88C873.354 1743.76 872.001 1772.44 871.879 1782.66C858.554 1784.7 727.113 1784.49 717.694 1781.72C713.879 1770.81 715.744 1522.23 716.08 1490.49C718.01 1487.14 716.72 1488.47 720.251 1486.51Z"/><path fill="#FCFCFA" d="M1791.36 1487.18C1806.72 1485.59 1847.34 1487.13 1864 1486.77C1877.26 1486.48 1927.54 1486.04 1938.49 1487.83C1941.52 1490.16 1942.25 1492.8 1942.71 1496.54C1943.41 1502.25 1944.41 1531.12 1940.61 1534.7C1934.22 1540.71 1857.56 1537.34 1843.07 1537.37C1842.54 1559.9 1842.77 1585.47 1843.28 1607.97C1856.86 1608.22 1910.8 1605.96 1919.68 1610.59C1922.99 1614.96 1922.92 1651.15 1919.74 1655.48C1911.11 1659.99 1855.73 1658.05 1842.95 1658L1842.92 1709.25L1842.94 1733.01C1871.75 1733.04 1900.74 1733.47 1929.53 1732.71C1935.24 1732.56 1938.65 1733.55 1942.53 1737.52C1943.77 1744.8 1944.49 1776.35 1940.39 1782.22C1936.11 1784.75 1801.35 1784.65 1790.59 1782.19C1787.97 1768.27 1788.98 1747.9 1788.97 1733.41L1788.95 1655.82L1788.97 1549.01C1788.97 1538.49 1787.47 1492.69 1791.36 1487.18Z"/><path fill="#FCFCFA" d="M1119.97 1486.51C1131.89 1486.44 1141.9 1486.42 1153.8 1487.26C1169.34 1555.25 1184.41 1623.34 1199.02 1691.53C1208.95 1645.75 1219.12 1600.03 1229.52 1554.36C1234.47 1532.54 1239.47 1508.36 1245.18 1487.01C1251.89 1486.47 1293.02 1485.3 1296.63 1488.71C1297.81 1497 1279.92 1564.47 1276.71 1577C1262.92 1639.55 1244.82 1702.25 1229.35 1764.48C1227.88 1770.41 1226.43 1778.38 1221.67 1782.42C1215.07 1783.59 1180.92 1783.76 1174.3 1782.36C1164.63 1773.83 1112.98 1532.92 1102.47 1502.19C1101.41 1499.1 1100.14 1490.92 1101.21 1487.63C1105.92 1486.24 1114.73 1486.55 1119.97 1486.51Z"/><path fill="#FCFCFA" d="M1612.96 1487.12C1621.45 1486.3 1657.75 1485.51 1664.7 1489.34C1666.66 1495.33 1665.99 1553.88 1665.98 1564.38L1665.87 1733.04C1679.37 1733.08 1750.64 1730.44 1757.47 1735.82C1758.65 1736.76 1758.64 1738.32 1758.82 1739.72C1759.71 1746.45 1760.17 1778.77 1757.13 1782.86C1737.09 1784.28 1705.22 1782.52 1684.08 1783.02C1672.82 1783.28 1620.59 1783.82 1612.17 1781.86C1610.46 1769.29 1611.01 1749.42 1611 1736.2L1610.99 1662.2L1611.02 1549.99C1611.03 1541.03 1609.75 1491.68 1612.96 1487.12Z"/><path fill="#FCFCFA" d="M1433.7 1487.09C1442.2 1486.59 1478.3 1485.11 1484.35 1489.45C1486.66 1500.83 1485.87 1552.44 1485.87 1566.94L1485.94 1733C1501.51 1733.12 1568.01 1731.01 1576.82 1735.72C1580.25 1740.69 1578.81 1751.42 1578.86 1757.67C1578.92 1766.15 1581.19 1776.33 1575.81 1783.11C1570.19 1783.83 1539.22 1784.33 1533.87 1783.64C1519.42 1781.76 1442.13 1786.2 1433.74 1780.6C1432.5 1773.41 1432.86 1756.43 1432.73 1748.09C1432.31 1722.06 1432.16 1696.03 1432.3 1669.99L1432.12 1555.6C1432.1 1542.51 1430.74 1495.92 1433.7 1487.09Z"/><path fill="#FCFCFA" d="M404.904 1486.38C413.336 1486.15 451.739 1484.45 453.936 1489.17C455.764 1493.1 455.218 1536.57 455.23 1544.25L455.051 1719.3L455.124 1762.91C455.136 1767.97 455.197 1774.06 455.065 1779.16C454.992 1781.97 452.774 1782.63 450.61 1783.9C440.411 1783.88 410.174 1785.29 402.813 1781.82C400.198 1776.29 401.123 1719.66 401.119 1709.12L401.101 1594.3L401.093 1525.82C401.094 1515.65 400.599 1498.34 401.639 1488.6L404.904 1486.38Z"/><path fill="#FCFCFA" d="M1332.53 1486.53C1342.21 1486.48 1375.64 1484.79 1382.64 1489.01C1384.8 1501.77 1384.01 1536.95 1384.02 1551.21L1384.02 1667.67L1384.01 1742.61C1384.02 1750.16 1384.58 1776.04 1383.15 1782.05C1377.94 1784.81 1335.34 1785.14 1331.09 1781.74C1329.36 1772.11 1329.95 1750.55 1329.95 1739.61L1329.96 1667.72L1329.96 1552.61C1329.93 1532.5 1329.81 1512.12 1329.96 1492C1330 1488.01 1330.03 1488.78 1332.53 1486.53Z"/><path fill="#CCA140" d="M931.311 985.617C920.215 929.477 902.886 869.501 910.325 812.142C919.364 742.453 979.198 643.588 1061.16 655.629C1046.49 664.551 1033.52 669.745 1018.01 679.684C974.13 710.718 944.512 758.034 935.77 811.062C928.34 853.846 934.297 895.186 943.604 937.145C947.097 952.891 952.554 970.784 955.589 985.974C960.797 1005.68 965.155 1026.84 966.503 1047.22C966.826 1048.28 967.211 1051.25 967.189 1052.46C966.664 1082.11 959.157 1113.26 938.746 1135.71C935.794 1138.73 930.812 1143.34 926.595 1144.3C920.916 1145.38 914.405 1144.59 908.674 1143.74C896.285 1141.92 884.899 1141.91 872.444 1142.34C885.875 1128.79 906.603 1115.74 916.203 1103.35C941.087 1071.25 935.956 1023.12 931.311 985.617Z"/><path fill="#CCA140" d="M931.311 985.617C920.215 929.477 902.886 869.501 910.325 812.142C919.364 742.453 979.198 643.588 1061.16 655.629C1046.49 664.551 1033.52 669.745 1018.01 679.684C1018.47 675.787 1018.46 675.427 1021.01 672.46C1020.79 668.494 1021.36 670.314 1019.01 666.883C1002.94 658.338 961.102 703.621 952.356 714.988C937.706 734.028 924.438 765.15 917.816 788.396C906.878 826.79 913.071 874.035 920.051 912.57C922.785 927.646 935.503 973.258 931.311 985.617Z"/><path fill="#CCA140" d="M955.589 985.974C960.797 1005.68 965.155 1026.84 966.503 1047.22L965.528 1048.92C962.22 1047.27 962.97 1047.16 960.677 1043.39C958.124 1042.83 957.798 1043.34 955.442 1044.34C954.249 1029.99 956.157 1013.92 955.835 999.47C955.716 994.142 953.849 991.052 955.589 985.974Z"/><path fill="#CCA140" d="M898.27 1318.86C900.828 1313.27 904.918 1308.52 910.065 1305.17C914.496 1302.26 922.184 1299.02 927.502 1298.91C945.757 1298.53 964.417 1298.69 982.656 1298.69L1092.41 1298.7L1176.55 1298.73C1194.45 1298.73 1229.28 1294.61 1239.5 1311.89C1244.31 1317.41 1251.9 1331.78 1248.59 1338.97C1242.11 1341.97 1025.29 1340.62 997.789 1340.56L926.275 1340.44C918.544 1340.37 900.503 1340.74 893.682 1339.68C890.501 1334.49 895.699 1323.68 898.27 1318.86Z"/><path fill="#FCFCFA" d="M1520.38 1855.16L1557.42 1854.95C1580.86 1854.85 1624.02 1851.25 1626.49 1888.12C1627.09 1897.03 1620.45 1905.37 1613.99 1911.1L1612.65 1912.3C1641.6 1929.65 1636.77 1967.65 1602.26 1973.99C1594.06 1976.39 1530.73 1976.11 1520.76 1975.1C1520.67 1959.52 1520.26 1941.71 1521.16 1926.33C1519.07 1908.32 1521.2 1875.48 1520.38 1855.16ZM1548.85 1954.02C1564.38 1954.05 1585.42 1955.8 1598.92 1949.92C1602.75 1946 1603.56 1944.23 1603.49 1938.65C1603.29 1922.54 1580.47 1924.98 1569.42 1924.93C1562.72 1924.91 1555.67 1925.12 1548.89 1925.23C1548.85 1934.51 1548.57 1944.82 1548.85 1954.02ZM1548.45 1903.63C1565.36 1903.1 1610.09 1910.49 1595.26 1880.73C1581.89 1875.55 1563.5 1876.89 1548.81 1877C1548.86 1883.74 1549.32 1897.49 1548.45 1903.63Z"/><path fill="#FCFCFA" d="M1521.16 1926.33C1523.7 1934.06 1522.52 1962.62 1522.34 1971.71C1550.31 1972.49 1573.64 1972.08 1602.26 1973.99C1594.06 1976.39 1530.73 1976.11 1520.76 1975.1C1520.67 1959.52 1520.26 1941.71 1521.16 1926.33Z"/><path fill="#FCFCFA" d="M1548.45 1903.63L1547.08 1902.09C1546.88 1900.98 1545.8 1879.29 1545.61 1877.92C1544.67 1870.96 1565.74 1872.57 1571.44 1873.03C1578.66 1873.62 1590.53 1872.49 1595.26 1880.73C1581.89 1875.55 1563.5 1876.89 1548.81 1877C1548.86 1883.74 1549.32 1897.49 1548.45 1903.63Z"/><path fill="#FCFCFA" d="M717.331 1855.03L744.942 1855.08L744.911 1931.21C744.903 1942.3 745.53 1963.94 744.549 1974.37L742.135 1975.22C734.079 1975.86 726.11 1975.25 718.044 1974.84C717.692 1960.94 718.695 1938.01 717.07 1925.19C700.153 1925.53 679.588 1924.12 662.984 1925.88C663.058 1942.21 662.989 1958.53 662.777 1974.85C652.932 1975.32 645.913 1975.27 636.051 1974.86C633.632 1941.85 635.128 1888.78 635.27 1855.07L662.891 1855.14L662.998 1901.65C678.184 1902.62 701.249 1901.81 717.009 1901.75C718.339 1888.68 716.927 1869.43 717.331 1855.03Z"/><path fill="#FCFCFA" d="M772.231 1855.26C800.767 1854.98 835.524 1854.35 863.695 1855.46L863.505 1877.95C842.626 1878.49 821.423 1877.89 800.195 1878.45C799.873 1886.4 800.077 1895.1 800.106 1903.11C810.589 1902.99 846.029 1901.98 854.04 1903.91C857.441 1908.54 856.118 1918.92 855.903 1924.94C840.796 1926.44 816.313 1925.71 800.022 1926.01C799.852 1935.01 800.048 1943.69 800.242 1952.67C820.066 1952.03 846.082 1951.67 865.795 1953.13C866.07 1961.66 866.208 1966.81 865.408 1975.23C840.869 1975.84 796.01 1976.78 772.437 1974.92C771.683 1962.23 772.162 1944.64 772.146 1931.63C772.044 1906.18 772.072 1880.72 772.231 1855.26Z"/><path fill="#FCFCFA" d="M1385.28 1854.99C1394.8 1855.09 1404.32 1855.14 1413.84 1855.12C1413.81 1873.09 1410.27 1930.55 1419.99 1945.63C1421.13 1947.4 1429.71 1952.53 1432.2 1953.93C1457.91 1955.04 1465.92 1943.85 1466.3 1918.63C1466.61 1897.58 1465.49 1876.02 1466.19 1855.04L1494.01 1855.09L1494.11 1897.76C1494.15 1930.15 1496.69 1966.38 1456.28 1976.17C1442.71 1979.17 1424.11 1978.97 1411.85 1971.68C1396.52 1963.86 1385.95 1947.9 1385.43 1931.01C1384.68 1906.87 1383.84 1878.95 1385.28 1854.99Z"/><path fill="#FCFCFA" d="M1411.85 1971.68C1417.72 1970.59 1449.36 1975.22 1456.28 1976.17C1442.71 1979.17 1424.11 1978.97 1411.85 1971.68Z"/><path fill="#FCFCFA" d="M888.637 1941.89C901.168 1949.09 937.146 1965.21 949.409 1947.25C958.176 1934.42 936.056 1928.63 926.564 1927.07C912.65 1924.8 888.711 1918.27 883.209 1902.86C876.52 1880.33 889.916 1862.12 911.048 1856.16C933.667 1849.78 953.758 1852.86 973.731 1863.6C971.548 1871.53 968.747 1877.96 965.62 1885.51C955.528 1881.11 950.282 1878.84 939.472 1876.96C932.15 1876.29 909.295 1875.65 908.879 1887.56C908.503 1898.32 927.311 1902 935.325 1903.99C962.299 1909.3 991.887 1921.23 974.543 1957.91C969.027 1967.19 956.66 1974.43 946.523 1976.13C921.073 1980.39 900.252 1976.64 878.754 1963C881.091 1956 885.048 1948.32 888.637 1941.89Z"/><path fill="#FCFCFA" d="M935.325 1903.99C933.047 1904.21 929.001 1905.39 927.139 1905.3C893.553 1903.5 903.035 1870.32 930.124 1871C932.682 1871.06 937.843 1874.49 939.472 1876.96C932.15 1876.29 909.295 1875.65 908.879 1887.56C908.503 1898.32 927.311 1902 935.325 1903.99Z"/><path fill="#FCFCFA" d="M1035.9 1853.42C1053.93 1851.48 1069.41 1855.59 1084.96 1864.52C1082.28 1870.71 1079.36 1879.19 1076.91 1885.66C1062.42 1878.17 1040.7 1871.24 1024.69 1881.05C1018.75 1884.69 1019.02 1893.86 1025.29 1897.24C1042.28 1906.8 1086.89 1905.91 1089.97 1932.21C1094.19 1968.22 1063.61 1977.57 1037.1 1978C1017.98 1977.4 1005.59 1973.1 989.852 1962.92C993.126 1955.6 996.089 1948.5 1000.33 1941.67C1009.51 1947.29 1017.14 1951.64 1028.4 1953.81C1038.55 1955.76 1063.43 1957.14 1061.92 1940.59C1061.19 1932.55 1049.36 1929.87 1042.4 1928.44C1025.06 1924.95 995.411 1919.39 993.044 1897.53C989.906 1868.57 1010.72 1856.1 1035.9 1853.42Z"/><path fill="#FCFCFA" d="M1220.93 1853.48C1239.1 1855.54 1252.46 1860.8 1264.83 1874.47C1260.21 1879.95 1253.25 1886.43 1247.99 1892.29C1244.97 1889.22 1241.41 1885.99 1237.72 1883.76C1227.93 1877.73 1216.1 1875.98 1204.98 1878.91C1184.07 1884.53 1174.15 1906.62 1179.91 1926.7C1182.77 1936.87 1189.76 1945.37 1199.19 1950.13C1206 1953.57 1209.13 1953.64 1216.06 1954.33C1232.02 1955.91 1235.5 1945.52 1247.54 1941.51C1251.83 1942.16 1250.71 1942.19 1254.6 1945.46C1258.17 1948.59 1262.08 1952.64 1265.52 1956.01C1242.55 1983.35 1197.39 1985.58 1171.06 1961.85C1139.72 1933.61 1145.31 1876.8 1185.8 1859.86C1199.35 1854.19 1206.23 1853.78 1220.93 1853.48Z"/><path fill="#FCFCFA" d="M612.045 1961.48C572.37 1997.57 500.943 1972.75 503.384 1913.45C505.91 1852.11 580.483 1834.34 616.982 1874.62C610.442 1881.47 606.304 1885.16 598.893 1891.01C559.174 1852.83 510.492 1900.9 537.973 1938.96C544.144 1947.52 553.593 1953.12 564.059 1954.44C575.717 1955.79 585.437 1951.45 594.406 1944.42C597.472 1941.35 595.746 1942 599.397 1941.59C606.934 1944.91 620.433 1952.6 612.045 1961.48Z"/><path fill="#FCFCFA" d="M594.406 1944.42C597.472 1941.35 595.746 1942 599.397 1941.59C606.934 1944.91 620.433 1952.6 612.045 1961.48C604.563 1951.56 611.171 1946.41 594.406 1944.42Z"/><path fill="#FCFCFA" d="M1283.83 1855.23L1310.96 1855.12C1311.77 1883.12 1309.22 1926.06 1311.92 1952.14L1371.02 1952.2C1371.26 1960.62 1371.26 1966.41 1370.7 1974.77C1356.52 1976.43 1297.32 1976.43 1283.9 1974.76C1282.21 1959.47 1283.28 1928.05 1283.09 1911.84C1282.94 1899.03 1282.38 1866.89 1283.83 1855.23Z"/><path fill="#CCA140" d="M1127.73 705.117C1141.4 711.149 1157.51 712.394 1169.03 723.109C1176.4 729.939 1180.85 739.356 1181.44 749.388C1148.59 746.008 1128.82 746.495 1127.73 705.117Z"/><path fill="#CCA140" d="M1098.47 1209.05C1109.42 1208.61 1119.87 1208.84 1130.81 1209.02C1134.58 1209.58 1139.61 1210.17 1143.23 1210.95C1133.13 1211.49 1122.49 1212.3 1112.43 1211.96C1115.71 1210.98 1120.43 1210.98 1124.22 1210.36C1115.64 1210.15 1106.99 1210.22 1098.47 1209.05Z"/><path fill="#CCA140" d="M1130.81 1209.02C1138.69 1208.53 1142.87 1207.92 1150.59 1210.2L1150.6 1210.42C1148.52 1211.85 1145.7 1211.54 1143.23 1210.95C1139.61 1210.17 1134.58 1209.58 1130.81 1209.02Z"/></svg>